<svg width="182" height="30" viewBox="0 0 182 30" fill="none" xmlns="http://www.w3.org/2000/svg">
<path d="M14.9995 29.9989C12.0329 29.9989 9.13287 29.1192 6.66622 27.4711C4.19957 25.8229 2.27705 23.4803 1.14177 20.7395C0.00649921 17.9987 -0.29054 14.9828 0.288217 12.0732C0.866975 9.16361 2.29554 6.49096 4.39325 4.39325C6.49096 2.29554 9.16361 0.866975 12.0732 0.288217C14.9828 -0.29054 17.9987 0.00649875 20.7395 1.14177C23.4803 2.27705 25.8229 4.19957 27.4711 6.66622C29.1192 9.13286 29.9989 12.0329 29.9989 14.9995C29.995 18.9764 28.4135 22.7893 25.6014 25.6014C22.7893 28.4135 18.9764 29.995 14.9995 29.9989ZM14.9995 3.28236C12.682 3.28236 10.4167 3.96956 8.48979 5.25705C6.56293 6.54454 5.06112 8.37451 4.17428 10.5155C3.28744 12.6566 3.0554 15.0125 3.5075 17.2854C3.95961 19.5583 5.07556 21.6461 6.71423 23.2847C8.35289 24.9234 10.4407 26.0393 12.7136 26.4914C14.9865 26.9435 17.3424 26.7115 19.4834 25.8247C21.6244 24.9378 23.4544 23.436 24.7419 21.5091C26.0294 19.5823 26.7166 17.3169 26.7166 14.9995C26.7195 13.46 26.4183 11.935 25.8305 10.5121C25.2427 9.08924 24.3797 7.79642 23.2911 6.70781C22.2025 5.6192 20.9097 4.75624 19.4868 4.16842C18.0639 3.5806 16.539 3.27949 14.9995 3.28236Z" fill="white"/>
<path d="M92.9367 29.9992H62.957V0.0195312H92.9367V3.28263H66.2201V13.3781H78.1472V16.6412H66.2201V26.7201H92.9367V29.9992Z" fill="white"/>
<path d="M60.5317 25.2859L35.264 0.0195312H31.9258V15.8015H35.264V4.73282L60.5317 29.9992V25.2859Z" fill="white"/>
<path d="M104.312 4.50293H103.109V25.5137H104.312V4.50293Z" fill="white"/>
<path d="M116.693 10.591V14.1975H115.414V4.59887H118.239C118.767 4.58357 119.295 4.64851 119.804 4.79146C120.214 4.89808 120.594 5.10097 120.911 5.38335C121.206 5.63924 121.43 5.96812 121.56 6.3373C121.705 6.72177 121.783 7.12864 121.789 7.5397C121.807 7.95288 121.729 8.36461 121.56 8.7421C121.393 9.10065 121.16 9.42435 120.873 9.69605C120.553 9.98279 120.176 10.1976 119.766 10.3258C119.269 10.4956 118.745 10.5732 118.22 10.555H116.694L116.693 10.591ZM116.693 9.57922H118.239C118.568 9.58704 118.897 9.54195 119.212 9.44569C119.481 9.3597 119.729 9.21648 119.937 9.02585C120.122 8.84928 120.265 8.63427 120.357 8.39608C120.454 8.13371 120.499 7.85516 120.491 7.57565C120.506 7.31146 120.464 7.04707 120.369 6.80026C120.274 6.55344 120.126 6.32992 119.937 6.14472C119.448 5.78065 118.847 5.59898 118.239 5.63115H116.693V9.58114V9.57922Z" fill="white"/>
<path d="M124.841 10.1904V14.1789H123.562V4.59887H126.272C126.801 4.58357 127.328 4.64851 127.837 4.79146C128.229 4.89246 128.598 5.06672 128.925 5.30503C129.208 5.53412 129.431 5.82901 129.574 6.16397C129.71 6.51657 129.776 6.89271 129.766 7.27072C129.767 7.59644 129.708 7.91955 129.594 8.22467C129.491 8.51138 129.336 8.77665 129.137 9.00723C128.923 9.244 128.671 9.44396 128.393 9.59912C128.089 9.77053 127.761 9.89294 127.419 9.96183C127.586 10.0643 127.729 10.2008 127.839 10.3624L130.624 14.1596H129.479C129.377 14.1657 129.276 14.1441 129.185 14.0971C129.095 14.05 129.019 13.9794 128.965 13.8926L126.485 10.4959C126.42 10.3952 126.327 10.3156 126.218 10.2668C126.089 10.2234 125.953 10.2041 125.817 10.2096H124.844L124.841 10.1904ZM124.841 9.25502H126.215C126.557 9.26547 126.899 9.22038 127.227 9.1215C127.492 9.03461 127.738 8.89873 127.952 8.72091C128.136 8.55826 128.279 8.35579 128.372 8.12902C128.467 7.87942 128.513 7.61354 128.506 7.34647C128.521 7.10471 128.479 6.86267 128.383 6.64032C128.287 6.41797 128.139 6.22169 127.952 6.06768C127.456 5.75873 126.876 5.61199 126.292 5.64783H124.88V9.25438L124.841 9.25502Z" fill="white"/>
<path d="M140.662 9.40807C140.677 10.0778 140.567 10.7444 140.338 11.3738C140.119 11.944 139.795 12.4683 139.384 12.9196C138.948 13.3464 138.437 13.6894 137.876 13.9313C136.638 14.414 135.263 14.414 134.025 13.9313C133.456 13.7057 132.941 13.3607 132.517 12.9196C132.092 12.4786 131.767 11.9517 131.563 11.3744C131.13 10.0996 131.13 8.71778 131.563 7.44302C131.782 6.87279 132.105 6.3485 132.517 5.89718C132.943 5.45812 133.456 5.11344 134.024 4.88544C135.263 4.40277 136.637 4.40277 137.876 4.88544C138.445 5.11112 138.959 5.4561 139.384 5.89715C139.809 6.3382 140.134 6.8651 140.338 7.44238C140.549 8.07639 140.658 8.73984 140.662 9.40807ZM139.307 9.40807C139.325 8.87685 139.247 8.34669 139.078 7.84297C138.922 7.41011 138.69 7.00918 138.391 6.65983C138.088 6.33381 137.717 6.07959 137.303 5.91579C136.855 5.73412 136.375 5.64334 135.891 5.64874C135.407 5.647 134.928 5.73764 134.479 5.91579C134.067 6.08226 133.696 6.33611 133.391 6.65983C133.092 7.00918 132.859 7.41011 132.704 7.84297C132.534 8.34669 132.457 8.87685 132.475 9.40807C132.457 9.9393 132.534 10.4695 132.704 10.9732C132.859 11.406 133.092 11.807 133.391 12.1563C133.694 12.4823 134.065 12.7365 134.479 12.9004C134.927 13.082 135.407 13.1728 135.891 13.1674C136.375 13.171 136.854 13.0803 137.303 12.9004C137.718 12.7387 138.09 12.4842 138.391 12.1563C138.69 11.807 138.922 11.406 139.078 10.9732C139.247 10.4695 139.325 9.9393 139.307 9.40807Z" fill="white"/>
<path d="M143.869 10.591V14.1975H142.59V4.59887H145.414C145.943 4.58357 146.471 4.6485 146.98 4.79146C147.39 4.89806 147.77 5.10095 148.086 5.38335C148.382 5.63922 148.606 5.96811 148.735 6.33731C148.881 6.72177 148.958 7.12864 148.965 7.5397C148.983 7.95288 148.904 8.36462 148.735 8.7421C148.569 9.10065 148.336 9.42435 148.048 9.69606C147.729 9.98274 147.351 10.1975 146.942 10.3258C146.445 10.4956 145.921 10.5732 145.396 10.555H143.85V10.5929L143.869 10.591ZM143.869 9.57922H145.414C145.744 9.58704 146.073 9.54196 146.388 9.44569C146.657 9.35973 146.904 9.2165 147.113 9.02585C147.298 8.84928 147.441 8.63427 147.533 8.39608C147.63 8.13368 147.675 7.85516 147.666 7.57565C147.682 7.31146 147.64 7.04708 147.545 6.80026C147.449 6.55345 147.302 6.32992 147.113 6.14472C146.624 5.78065 146.023 5.59898 145.414 5.63115H143.869V9.58115V9.57922Z" fill="white"/>
<path d="M156.502 4.59961V5.64922H151.883V8.85518H155.623V9.86371H151.883V13.1461H156.502V14.1957H150.586V4.59961H156.502Z" fill="white"/>
<path d="M159.802 10.1904V14.1789H158.523V4.59887H161.233C161.762 4.58357 162.289 4.64851 162.798 4.79146C163.19 4.89246 163.559 5.06672 163.886 5.30503C164.169 5.5341 164.392 5.82899 164.535 6.16397C164.671 6.51657 164.737 6.89271 164.727 7.27072C164.728 7.59644 164.669 7.91956 164.555 8.22467C164.449 8.50994 164.294 8.77469 164.098 9.00723C163.884 9.24396 163.632 9.44393 163.354 9.59912C163.05 9.77051 162.722 9.89292 162.38 9.96183C162.547 10.0644 162.69 10.2009 162.8 10.3624L165.586 14.1603H164.441C164.339 14.1664 164.238 14.1447 164.147 14.0977C164.057 14.0507 163.981 13.98 163.927 13.8932L161.447 10.4966C161.382 10.3959 161.289 10.3163 161.18 10.2674C161.051 10.2241 160.915 10.2047 160.779 10.2103H159.806L159.802 10.1904ZM159.802 9.25502H161.176C161.518 9.2654 161.859 9.22031 162.187 9.1215C162.452 9.0346 162.698 8.89871 162.913 8.72091C163.096 8.55835 163.24 8.35585 163.332 8.12902C163.428 7.87941 163.473 7.61354 163.466 7.34647C163.482 7.10471 163.44 6.86267 163.343 6.64032C163.247 6.41797 163.1 6.22169 162.913 6.06768C162.416 5.75873 161.836 5.61199 161.252 5.64783H159.84V9.25438L159.802 9.25502Z" fill="white"/>
<path d="M173.198 4.59961V5.68709H170.09V14.1982H168.773V5.68709H165.66V4.59961H173.198Z" fill="white"/>
<path d="M178.239 10.3625V14.1982H176.96V10.3625L173.43 4.59959H174.574C174.672 4.59554 174.768 4.62985 174.841 4.69524C174.913 4.7594 174.972 4.83733 175.013 4.92442L177.188 8.6645C177.284 8.83654 177.36 8.95081 177.418 9.08434C177.483 9.21431 177.54 9.34808 177.589 9.48493C177.633 9.33992 177.691 9.19935 177.761 9.06508C177.822 8.91747 177.899 8.77674 177.99 8.64524L180.166 4.8859C180.212 4.81256 180.27 4.74747 180.338 4.69331C180.413 4.63098 180.507 4.59711 180.605 4.59766H181.75L178.239 10.3625Z" fill="white"/>
<path d="M119.288 24.9992C119.575 25.0061 119.862 24.9934 120.147 24.9613C120.393 24.9388 120.635 24.8941 120.873 24.8278C121.087 24.763 121.297 24.6865 121.503 24.5986C121.712 24.503 121.903 24.4061 122.094 24.3123V21.8889H120.361C120.313 21.8945 120.265 21.8808 120.228 21.851C120.214 21.8397 120.203 21.8249 120.196 21.8082C120.19 21.7914 120.187 21.7732 120.19 21.7554V21.3927H122.671V24.5608C122.451 24.7145 122.221 24.8547 121.984 24.9806C121.741 25.1183 121.476 25.2151 121.201 25.2669C120.915 25.3552 120.621 25.4196 120.324 25.4595C119.976 25.4997 119.625 25.5188 119.274 25.5166C118.693 25.5348 118.114 25.4342 117.574 25.2209C117.033 25.0076 116.541 24.6862 116.129 24.2764C115.73 23.8732 115.429 23.3833 115.251 22.8448C115.038 22.2376 114.929 21.599 114.927 20.9555C114.913 20.3108 115.023 19.6694 115.251 19.0662C115.44 18.5328 115.739 18.0452 116.129 17.6353C116.523 17.2252 117.006 16.9117 117.541 16.7192C118.137 16.4896 118.772 16.3795 119.411 16.395C119.735 16.395 120.06 16.4329 120.365 16.4521C120.643 16.4939 120.918 16.5583 121.185 16.6447C121.428 16.7219 121.659 16.8309 121.872 16.9689C122.094 17.1042 122.305 17.2573 122.502 17.4266L122.331 17.7129C122.313 17.7424 122.287 17.7666 122.257 17.7834C122.227 17.8001 122.193 17.8088 122.159 17.8086C122.141 17.811 122.123 17.8088 122.106 17.8021C122.089 17.7955 122.074 17.7847 122.063 17.7707C121.971 17.7183 121.882 17.6609 121.796 17.5987C121.641 17.4868 121.474 17.3909 121.3 17.3124C121.05 17.1943 120.787 17.1047 120.517 17.0453C120.153 16.9669 119.783 16.9222 119.41 16.9118C118.875 16.9018 118.343 16.9992 117.845 17.1981C117.398 17.379 116.989 17.6447 116.643 17.9806C116.297 18.3417 116.042 18.7801 115.899 19.2594C115.719 19.7944 115.629 20.3553 115.632 20.9195C115.626 21.4967 115.716 22.0707 115.899 22.6182C116.066 23.0867 116.318 23.5203 116.643 23.897C116.962 24.2571 117.37 24.5269 117.826 24.6795C118.28 24.904 118.782 25.0138 119.288 24.9992Z" fill="white"/>
<path d="M125.739 21.3546V25.4195H125.09V16.45H127.38C128.199 16.3885 129.017 16.5964 129.707 17.0419C129.969 17.2526 130.174 17.5252 130.304 17.8352C130.434 18.1451 130.485 18.4826 130.452 18.817C130.452 19.1427 130.393 19.4658 130.279 19.7709C130.155 20.0483 129.981 20.3005 129.766 20.5149C129.543 20.7375 129.276 20.9122 128.983 21.0285C128.649 21.171 128.295 21.2611 127.934 21.2956C128.036 21.3697 128.127 21.4599 128.201 21.5626L131.273 25.4144H130.72C130.66 25.4225 130.599 25.409 130.548 25.3765C130.51 25.3387 130.452 25.3194 130.414 25.243L127.533 21.6172C127.477 21.5315 127.397 21.4644 127.303 21.4246C127.175 21.378 127.039 21.3585 126.903 21.3675L125.739 21.3482V21.3546ZM125.739 20.8584H127.304C127.671 20.8646 128.037 20.8197 128.391 20.7249C128.679 20.6506 128.946 20.5138 129.174 20.3243C129.397 20.1585 129.569 19.9337 129.67 19.6753C129.78 19.4021 129.839 19.1108 129.842 18.8163C129.866 18.5468 129.821 18.2756 129.711 18.0285C129.6 17.7813 129.429 17.5664 129.213 17.404C128.662 17.0701 128.023 16.9106 127.38 16.9463H125.739V20.8584Z" fill="white"/>
<path d="M140.586 20.9341C140.593 21.5751 140.497 22.2132 140.3 22.8234C140.119 23.3605 139.819 23.8498 139.422 24.2549C139.05 24.6547 138.594 24.9675 138.086 25.171C137.536 25.399 136.945 25.5094 136.35 25.4952C135.755 25.5076 135.164 25.3972 134.613 25.171C134.109 24.9631 133.653 24.6509 133.277 24.2549C132.904 23.832 132.608 23.3476 132.4 22.8234C132.187 22.2162 132.077 21.5775 132.076 20.9341C132.06 20.2955 132.17 19.6601 132.4 19.064C132.581 18.5271 132.881 18.038 133.277 17.6331C133.643 17.2251 134.101 16.9109 134.613 16.717C135.163 16.4891 135.755 16.3786 136.35 16.3928C136.945 16.3804 137.536 16.4908 138.086 16.717C138.591 16.9249 139.046 17.2371 139.422 17.6331C139.795 18.0558 140.092 18.54 140.3 19.064C140.5 19.6669 140.596 20.2991 140.586 20.9341ZM139.937 20.9341C139.945 20.3694 139.854 19.8077 139.67 19.2739C139.505 18.809 139.259 18.3768 138.944 17.9971C138.639 17.6382 138.244 17.3679 137.799 17.2145C137.331 17.029 136.832 16.9382 136.329 16.9475C135.827 16.9476 135.33 17.038 134.86 17.2145C134.435 17.4055 134.047 17.6705 133.715 17.9971C133.383 18.3678 133.131 18.8023 132.974 19.2739C132.793 19.8085 132.702 20.3696 132.707 20.9341C132.702 21.5111 132.793 22.0849 132.974 22.6327C133.133 23.1047 133.386 23.5397 133.718 23.9115C134.022 24.2703 134.418 24.5406 134.863 24.694C135.328 24.8864 135.829 24.9775 136.333 24.9611C136.835 24.9645 137.333 24.8739 137.802 24.694C138.232 24.5125 138.622 24.2464 138.947 23.9115C139.281 23.5442 139.529 23.1075 139.673 22.6327C139.851 22.0844 139.941 21.5108 139.937 20.9341Z" fill="white"/>
<path d="M146.025 24.9241C146.419 24.9407 146.812 24.8621 147.17 24.6949C147.493 24.5406 147.785 24.327 148.029 24.0652C148.268 23.7824 148.456 23.4594 148.582 23.1112C148.717 22.7316 148.782 22.3308 148.775 21.9281V16.4502H149.424V21.9846C149.438 22.4531 149.36 22.9198 149.195 23.3584C149.03 23.7635 148.798 24.1377 148.508 24.4651C148.205 24.7911 147.834 25.0453 147.42 25.2091C146.974 25.3981 146.492 25.4891 146.008 25.4762C145.525 25.4779 145.045 25.3873 144.596 25.2091C144.187 25.0358 143.817 24.7829 143.508 24.4651C143.218 24.1378 142.985 23.7635 142.821 23.3584C142.655 22.9198 142.577 22.4531 142.591 21.9846V16.4502H143.24V21.9846C143.235 22.3872 143.3 22.7877 143.433 23.1677C143.546 23.5137 143.72 23.8368 143.947 24.1217C144.177 24.3991 144.472 24.6154 144.806 24.7514C145.202 24.866 145.612 24.9241 146.025 24.9241Z" fill="white"/>
<path d="M152.837 21.7744V25.381H152.188V16.45H154.516C155.367 16.3914 156.212 16.6346 156.901 17.1369C157.168 17.3869 157.377 17.6927 157.512 18.0324C157.647 18.3722 157.706 18.7376 157.684 19.1026C157.687 19.4694 157.613 19.8328 157.465 20.1685C157.316 20.5041 157.098 20.8043 156.825 21.049C156.524 21.2929 156.181 21.4803 155.813 21.6024C155.381 21.7371 154.93 21.8021 154.477 21.795H152.836L152.837 21.7744ZM152.837 21.2609H154.499C154.856 21.2675 155.212 21.2092 155.548 21.0888C155.843 21.0035 156.112 20.8462 156.331 20.6311C156.555 20.4511 156.727 20.2138 156.827 19.9442C156.951 19.6755 157.01 19.3811 156.999 19.0852C157.019 18.7878 156.973 18.4897 156.864 18.2122C156.755 17.9347 156.586 17.6848 156.369 17.4803C155.826 17.0753 155.156 16.8789 154.48 16.927H152.838L152.837 21.2609Z" fill="white"/>
</svg>
